<mxfile>
    <diagram id="2qahK0i5iwPNIYluYebs" name="Page-1">
        <mxGraphModel dx="1022" dy="830" grid="1" gridSize="10" guides="1" tooltips="1" connect="1" arrows="1" fold="1" page="1" pageScale="1" pageWidth="850" pageHeight="1100" math="0" shadow="0">
            <root>
                <mxCell id="0"/>
                <mxCell id="1" parent="0"/>
                <mxCell id="25" value="" style="group" vertex="1" connectable="0" parent="1">
                    <mxGeometry x="240" y="590" width="180" height="280" as="geometry"/>
                </mxCell>
                <mxCell id="2" value="Backing Services" style="rounded=0;whiteSpace=wrap;html=1;verticalAlign=top;fontSize=16;" vertex="1" parent="25">
                    <mxGeometry width="180" height="280" as="geometry"/>
                </mxCell>
                <mxCell id="3" value="Postgresql with volume" style="shape=cylinder3;whiteSpace=wrap;html=1;boundedLbl=1;backgroundOutline=1;size=15;fontSize=16;" vertex="1" parent="25">
                    <mxGeometry x="35" y="50" width="100" height="90" as="geometry"/>
                </mxCell>
                <mxCell id="4" value="ActiveMQ" style="ellipse;shape=cloud;whiteSpace=wrap;html=1;fontSize=16;" vertex="1" parent="25">
                    <mxGeometry x="10" y="160" width="150" height="100" as="geometry"/>
                </mxCell>
                <mxCell id="34" value="trigger and fetch ebooks" style="edgeStyle=orthogonalEdgeStyle;rounded=0;orthogonalLoop=1;jettySize=auto;html=1;entryX=0.4;entryY=0.1;entryDx=0;entryDy=0;entryPerimeter=0;fontSize=16;" edge="1" parent="1" source="8" target="12">
                    <mxGeometry relative="1" as="geometry"/>
                </mxCell>
                <mxCell id="8" value="" style="shape=umlActor;verticalLabelPosition=bottom;verticalAlign=top;html=1;outlineConnect=0;fontSize=16;" vertex="1" parent="1">
                    <mxGeometry x="100" y="270" width="60" height="90" as="geometry"/>
                </mxCell>
                <mxCell id="22" value="read &amp;amp; write&lt;br&gt;meta info" style="edgeStyle=orthogonalEdgeStyle;rounded=0;orthogonalLoop=1;jettySize=auto;html=1;entryX=0;entryY=0.5;entryDx=0;entryDy=0;entryPerimeter=0;fontSize=16;" edge="1" parent="1" source="12" target="3">
                    <mxGeometry x="-0.5656" y="10" relative="1" as="geometry">
                        <Array as="points">
                            <mxPoint x="200" y="685"/>
                        </Array>
                        <mxPoint as="offset"/>
                    </mxGeometry>
                </mxCell>
                <mxCell id="26" value="enqueue job" style="edgeStyle=orthogonalEdgeStyle;rounded=0;orthogonalLoop=1;jettySize=auto;html=1;entryX=0.07;entryY=0.4;entryDx=0;entryDy=0;entryPerimeter=0;fontSize=16;exitX=0.55;exitY=0.95;exitDx=0;exitDy=0;exitPerimeter=0;" edge="1" parent="1" source="12" target="4">
                    <mxGeometry x="0.3315" y="3" relative="1" as="geometry">
                        <Array as="points">
                            <mxPoint x="158" y="790"/>
                        </Array>
                        <mxPoint as="offset"/>
                    </mxGeometry>
                </mxCell>
                <mxCell id="32" value="read file" style="edgeStyle=orthogonalEdgeStyle;rounded=0;orthogonalLoop=1;jettySize=auto;html=1;entryX=0.5;entryY=1;entryDx=0;entryDy=0;entryPerimeter=0;fontSize=16;exitX=0.875;exitY=0.5;exitDx=0;exitDy=0;exitPerimeter=0;" edge="1" parent="1" source="12" target="30">
                    <mxGeometry relative="1" as="geometry"/>
                </mxCell>
                <mxCell id="12" value="Novel-Rest" style="ellipse;shape=cloud;whiteSpace=wrap;html=1;fontSize=16;" vertex="1" parent="1">
                    <mxGeometry x="75" y="430" width="150" height="100" as="geometry"/>
                </mxCell>
                <mxCell id="27" value="dequeue job" style="edgeStyle=orthogonalEdgeStyle;rounded=0;orthogonalLoop=1;jettySize=auto;html=1;exitX=0.88;exitY=0.25;exitDx=0;exitDy=0;exitPerimeter=0;fontSize=16;" edge="1" parent="1" source="4" target="11">
                    <mxGeometry x="-0.2049" y="5" relative="1" as="geometry">
                        <Array as="points">
                            <mxPoint x="496" y="775"/>
                        </Array>
                        <mxPoint as="offset"/>
                    </mxGeometry>
                </mxCell>
                <mxCell id="28" style="edgeStyle=orthogonalEdgeStyle;rounded=0;orthogonalLoop=1;jettySize=auto;html=1;fontSize=16;exitX=0.5;exitY=1;exitDx=0;exitDy=0;entryX=0.96;entryY=0.7;entryDx=0;entryDy=0;entryPerimeter=0;" edge="1" parent="1" source="11" target="4">
                    <mxGeometry relative="1" as="geometry">
                        <mxPoint x="673" y="680" as="targetPoint"/>
                        <Array as="points">
                            <mxPoint x="575" y="820"/>
                        </Array>
                    </mxGeometry>
                </mxCell>
                <mxCell id="29" value="enqueue result" style="edgeLabel;html=1;align=center;verticalAlign=middle;resizable=0;points=[];fontSize=16;" vertex="1" connectable="0" parent="28">
                    <mxGeometry x="-0.2415" y="1" relative="1" as="geometry">
                        <mxPoint x="-0.9999999999999996" y="136.19" as="offset"/>
                    </mxGeometry>
                </mxCell>
                <mxCell id="30" value="volume mount" style="shape=cylinder3;whiteSpace=wrap;html=1;boundedLbl=1;backgroundOutline=1;size=15;fontSize=16;" vertex="1" parent="1">
                    <mxGeometry x="260" y="285" width="75" height="90" as="geometry"/>
                </mxCell>
                <mxCell id="31" value="write file" style="edgeStyle=orthogonalEdgeStyle;rounded=0;orthogonalLoop=1;jettySize=auto;html=1;entryX=1;entryY=0;entryDx=0;entryDy=30;entryPerimeter=0;fontSize=16;" edge="1" parent="1" source="11" target="30">
                    <mxGeometry x="-0.1667" y="-20" relative="1" as="geometry">
                        <mxPoint x="-20" y="20" as="offset"/>
                    </mxGeometry>
                </mxCell>
                <mxCell id="33" value="dequeue result" style="edgeStyle=orthogonalEdgeStyle;rounded=0;orthogonalLoop=1;jettySize=auto;html=1;exitX=0.13;exitY=0.77;exitDx=0;exitDy=0;exitPerimeter=0;entryX=0.13;entryY=0.77;entryDx=0;entryDy=0;entryPerimeter=0;fontSize=16;" edge="1" parent="1" source="4" target="12">
                    <mxGeometry x="-0.293" y="15" relative="1" as="geometry">
                        <mxPoint as="offset"/>
                    </mxGeometry>
                </mxCell>
                <mxCell id="35" value="" style="group" vertex="1" connectable="0" parent="1">
                    <mxGeometry x="450" y="220" width="320" height="240" as="geometry"/>
                </mxCell>
                <mxCell id="11" value="Novel-Worker" style="rounded=0;whiteSpace=wrap;html=1;fontSize=16;verticalAlign=top;" vertex="1" parent="35">
                    <mxGeometry width="320" height="240" as="geometry"/>
                </mxCell>
                <mxCell id="13" value="Novel-Worker-1" style="ellipse;shape=cloud;whiteSpace=wrap;html=1;fontSize=16;" vertex="1" parent="35">
                    <mxGeometry x="10" y="30" width="150" height="100" as="geometry"/>
                </mxCell>
                <mxCell id="14" value="Novel-Worker-2" style="ellipse;shape=cloud;whiteSpace=wrap;html=1;fontSize=16;" vertex="1" parent="35">
                    <mxGeometry x="170" y="30" width="150" height="100" as="geometry"/>
                </mxCell>
                <mxCell id="17" value="&lt;span&gt;Novel-Worker-n&lt;/span&gt;" style="ellipse;shape=cloud;whiteSpace=wrap;html=1;fontSize=16;" vertex="1" parent="35">
                    <mxGeometry x="170" y="130" width="150" height="100" as="geometry"/>
                </mxCell>
                <mxCell id="20" value="Novel-Worker-3" style="ellipse;shape=cloud;whiteSpace=wrap;html=1;fontSize=16;" vertex="1" parent="35">
                    <mxGeometry x="10" y="130" width="150" height="100" as="geometry"/>
                </mxCell>
            </root>
        </mxGraphModel>
    </diagram>
</mxfile>